<svg width="8167" height="6616" viewBox="0 0 8167 6616" fill="none" xmlns="http://www.w3.org/2000/svg">
<g filter="url(#filter0_n_290_224)">
<path d="M7743 2926C7743 2892.86 7770.01 2865.55 7802.79 2870.42C7893.12 2883.85 7977.48 2927.45 8042.75 2995.56C8122.25 3078.51 8166.91 3191.03 8166.91 3308.34C8166.91 3425.66 8122.25 3538.17 8042.75 3621.12C7977.48 3689.23 7893.12 3732.84 7802.79 3746.26C7770.01 3751.14 7743 3723.82 7743 3690.68L7743 3308.34V2926Z" fill="#1C1C1C"/>
</g>
<g filter="url(#filter1_n_290_224)">
<path d="M7229 2927C7229 2893.86 7255.86 2867 7289 2867H7463.89C7497.03 2867 7523.89 2893.86 7523.89 2927V3691.68C7523.89 3724.82 7497.03 3751.68 7463.89 3751.68H7289C7255.86 3751.68 7229 3724.82 7229 3691.68V2927Z" fill="#1C1C1C"/>
</g>
<g filter="url(#filter2_n_290_224)">
<path d="M199.347 3301.86L199.349 3199.51C199.35 3179.78 209.05 3161.31 225.294 3150.11L597.393 2893.59C621.523 2876.96 654.14 2880.19 674.536 2901.23L1031.71 3269.8C1054.29 3293.11 1054.25 3330.14 1031.62 3353.4L674.274 3720.72C653.601 3741.97 620.507 3744.93 596.386 3727.7L224.464 3461.95C208.701 3450.68 199.346 3432.5 199.346 3413.13L199.347 3301.86Z" fill="#1C1C1C"/>
</g>
<g filter="url(#filter3_n_290_224)">
<path d="M1060.53 2986.16C1016.9 2941.92 1048.23 2867 1110.36 2867H6939.94C6978.6 2867 7009.94 2898.34 7009.94 2937V3681.68C7009.94 3720.34 6978.6 3751.68 6939.94 3751.68H1112.68C1050.67 3751.68 1019.28 3677.02 1062.67 3632.71L1331.17 3358.49C1357.88 3331.21 1357.8 3287.55 1330.99 3260.36L1060.53 2986.16Z" fill="#1C1C1C"/>
</g>
<g filter="url(#filter4_n_290_224)">
<path d="M35.8237 3330.52C18.5285 3318.6 18.5284 3293.05 35.8236 3281.13L208.971 3161.75C228.873 3148.03 256 3162.28 256 3186.45V3425.2C256 3449.38 228.873 3463.62 208.971 3449.9L35.8237 3330.52Z" fill="#1C1C1C"/>
</g>
<g filter="url(#filter5_n_290_224)">
<path d="M3729.8 5932.05C3721.7 5888.12 3685.4 5855.12 3641.09 5849.47C3546.26 5837.39 3442.6 5818.23 3338.95 5788.22C3252.06 5763.06 3155.35 5729.29 3053.91 5687.44C3013.33 5670.7 2966.37 5681.16 2937.67 5714.37L2538.61 6176.16C2507.08 6212.65 2453.99 6221.44 2412.38 6197.05L2345.06 6157.58L2265.81 6111.13C2224.2 6086.74 2205.93 6036.13 2222.36 5990.78L2425.17 5431.23C2440.54 5388.82 2425.48 5341.55 2389.4 5314.48C2295.31 5243.89 2206.8 5166.97 2128.31 5084.18C2063.42 5015.74 2003.72 4944.5 1949.02 4872.53C1922.22 4837.27 1875.93 4822.5 1834.11 4837.09L1265.25 5035.58C1219.71 5051.46 1169.32 5032.59 1145.43 4990.69L1106.78 4922.9L1061.28 4843.1C1037.4 4801.2 1046.82 4748.22 1083.68 4717.13L1538.32 4333.68C1572.9 4304.52 1583.44 4255.81 1565.15 4214.45C1540.86 4159.54 1520.98 4110.77 1505.3 4070.26C1481.03 4007.57 1527.88 3943 1595.1 3943H2517.98C2559.22 3943 2596.49 3968.24 2615.55 4004.82C2676.63 4122.05 2840.52 4383.21 3170.67 4587.22C3499.43 4790.35 3844.94 4822.42 3984.92 4826.51C3984.93 4826.51 3984.93 4826.51 3984.93 4826.5V4826.5C3984.93 4826.5 3984.93 4826.5 3984.94 4826.5C3984.98 4826.5 3985.23 4826.51 3985.69 4826.53C3997.79 4826.88 4008.34 4827.01 4017.18 4827.04C4026.03 4827.01 4036.57 4826.88 4048.68 4826.53C4049.13 4826.51 4049.39 4826.5 4049.43 4826.5C4049.43 4826.5 4049.44 4826.5 4049.44 4826.5V4826.5C4049.44 4826.51 4049.44 4826.51 4049.44 4826.51C4189.42 4822.42 4534.93 4790.35 4863.69 4587.22C5193.87 4383.2 5357.76 4122.02 5418.83 4004.8C5437.88 3968.22 5475.14 3943 5516.37 3943H6439.26C6506.48 3943 6553.32 4007.61 6529.05 4070.31C6514.74 4107.27 6496.94 4151.09 6475.49 4200.17C6457.45 4241.47 6468.07 4289.92 6502.52 4318.98L6974.59 4717.13C7011.46 4748.22 7020.88 4801.2 6996.99 4843.1L6951.49 4922.9L6912.84 4990.69C6888.96 5032.59 6838.57 5051.46 6793.03 5035.58L6205.25 4830.49C6163.33 4815.86 6116.93 4830.74 6090.17 4866.16C6034.16 4940.29 5972.86 5013.72 5906.05 5084.18C5830.06 5164.33 5744.68 5238.99 5653.93 5307.72C5618.1 5334.85 5603.21 5381.96 5618.53 5424.21L5823.87 5990.78C5840.31 6036.13 5822.04 6086.74 5780.43 6111.13L5705.16 6155.25L5633.86 6197.05C5592.25 6221.44 5539.16 6212.65 5507.63 6176.16L5105.44 5710.75C5076.66 5677.45 5029.56 5667.03 4988.93 5683.93C4884.4 5727.41 4784.72 5762.36 4695.42 5788.22C4596.69 5816.81 4497.96 5835.54 4406.86 5847.7C4362.79 5853.58 4326.79 5886.5 4318.72 5930.22L4207.38 6533.63C4198.63 6581.06 4157.27 6615.48 4109.04 6615.48H3939.15C3890.92 6615.48 3849.56 6581.06 3840.81 6533.63L3729.8 5932.05Z" fill="#1C1C1C" style="mix-blend-mode:color"/>
</g>
<g filter="url(#filter6_n_290_224)">
<path d="M4319.47 683.429C4327.58 727.364 4363.87 760.363 4408.19 766.009C4503.02 778.092 4606.67 797.249 4710.33 827.262C4797.21 852.419 4893.92 886.19 4995.37 928.04C5035.95 944.781 5082.9 934.323 5111.6 901.108L5510.66 439.322C5542.2 402.83 5595.28 394.046 5636.89 418.436L5704.21 457.897C5704.21 457.897 5704.22 457.897 5704.22 457.897V457.897C5704.22 457.897 5704.22 457.898 5704.22 457.898L5783.46 504.349C5825.07 528.739 5843.34 579.352 5826.91 624.696L5624.1 1184.25C5608.73 1226.66 5623.79 1273.94 5659.87 1301C5753.96 1371.59 5842.47 1448.51 5920.96 1531.3C5985.85 1599.74 6045.55 1670.98 6100.25 1742.95C6127.05 1778.21 6173.34 1792.98 6215.16 1778.39L6784.03 1579.9C6829.56 1564.02 6879.95 1582.89 6903.84 1624.79L6942.49 1692.58L6987.99 1772.38C7011.88 1814.28 7002.46 1867.26 6965.59 1898.35L6510.95 2281.8C6476.37 2310.96 6465.83 2359.67 6484.13 2401.03C6508.41 2455.93 6528.29 2504.7 6543.97 2545.21C6568.24 2607.91 6521.39 2672.48 6454.16 2672.48H5531.28C5490.04 2672.48 5452.79 2647.26 5433.74 2610.69C5372.67 2493.47 5208.78 2232.28 4878.6 2028.27C4549.84 1825.13 4204.33 1793.06 4064.35 1788.97C4064.35 1788.97 4064.34 1788.97 4064.34 1788.98V1788.98C4064.34 1788.98 4064.34 1788.98 4064.34 1788.98C4064.29 1788.98 4064.04 1788.97 4063.58 1788.95C4051.48 1788.6 4040.94 1788.47 4032.09 1788.44C4023.25 1788.47 4012.7 1788.6 4000.6 1788.95C4000.14 1788.97 3999.89 1788.98 3999.84 1788.98C3999.84 1788.98 3999.84 1788.98 3999.84 1788.98V1788.98C3999.84 1788.97 3999.83 1788.97 3999.83 1788.97C3859.85 1793.06 3514.34 1825.13 3185.58 2028.27C2855.4 2232.28 2691.51 2493.47 2630.45 2610.69C2611.39 2647.26 2574.14 2672.48 2532.9 2672.48H1610.02C1542.79 2672.48 1495.95 2607.86 1520.22 2545.17C1534.53 2508.21 1552.33 2464.39 1573.78 2415.31C1591.82 2374.01 1581.21 2325.56 1546.76 2296.5L1074.68 1898.35C1037.81 1867.26 1028.39 1814.28 1052.28 1772.38L1097.78 1692.58L1136.43 1624.79C1160.32 1582.89 1210.71 1564.02 1256.25 1579.9L1844.03 1784.99C1885.95 1799.62 1932.34 1784.74 1959.1 1749.32C2015.11 1675.19 2076.41 1601.76 2143.22 1531.3C2219.21 1451.15 2304.59 1376.49 2395.34 1307.76C2431.17 1280.63 2446.06 1233.52 2430.75 1191.27L2225.4 624.696C2208.96 579.352 2227.24 528.739 2268.84 504.349L2348.09 457.897L2415.41 418.436C2457.02 394.046 2510.11 402.83 2541.64 439.322L2943.84 904.733C2972.61 938.028 3019.71 948.449 3060.34 931.55C3164.87 888.075 3264.55 853.118 3353.85 827.262C3452.58 798.676 3551.31 779.939 3642.41 767.782C3686.48 761.901 3722.48 728.985 3730.55 685.262L3841.89 81.8539C3850.64 34.4247 3892 0 3940.23 0H4110.13C4158.36 0 4199.71 34.4248 4208.47 81.8541L4319.47 683.429Z" fill="#1C1C1C" style="mix-blend-mode:color"/>
</g>
<defs>
<filter id="filter0_n_290_224" x="7743" y="2869.85" width="423.91" height="876.977" filterUnits="userSpaceOnUse" color-interpolation-filters="sRGB">
<feFlood flood-opacity="0" result="BackgroundImageFix"/>
<feBlend mode="normal" in="SourceGraphic" in2="BackgroundImageFix" result="shape"/>
<feTurbulence type="fractalNoise" baseFrequency="0.21702674031257629 0.21702674031257629" stitchTiles="stitch" numOctaves="3" result="noise" seed="2068" />
<feColorMatrix in="noise" type="luminanceToAlpha" result="alphaNoise" />
<feComponentTransfer in="alphaNoise" result="coloredNoise1">
<feFuncA type="discrete" tableValues="0 0 0 0 0 0 0 0 0 1 1 1 1 1 1 1 1 1 1 1 1 1 1 1 1 1 1 1 1 1 1 1 1 1 1 1 1 1 1 1 0 0 0 0 0 0 0 0 0 0 0 0 0 0 0 0 0 0 0 0 0 0 0 0 0 0 0 0 0 0 0 0 0 0 0 0 0 0 0 0 0 0 0 0 0 0 0 0 0 0 0 0 0 0 0 0 0 0 0 0 "/>
</feComponentTransfer>
<feComposite operator="in" in2="shape" in="coloredNoise1" result="noise1Clipped" />
<feFlood flood-color="rgba(0, 0, 0, 0.2)" result="color1Flood" />
<feComposite operator="in" in2="noise1Clipped" in="color1Flood" result="color1" />
<feMerge result="effect1_noise_290_224">
<feMergeNode in="shape" />
<feMergeNode in="color1" />
</feMerge>
</filter>
<filter id="filter1_n_290_224" x="7229" y="2867" width="294.895" height="884.684" filterUnits="userSpaceOnUse" color-interpolation-filters="sRGB">
<feFlood flood-opacity="0" result="BackgroundImageFix"/>
<feBlend mode="normal" in="SourceGraphic" in2="BackgroundImageFix" result="shape"/>
<feTurbulence type="fractalNoise" baseFrequency="0.21702674031257629 0.21702674031257629" stitchTiles="stitch" numOctaves="3" result="noise" seed="3645" />
<feColorMatrix in="noise" type="luminanceToAlpha" result="alphaNoise" />
<feComponentTransfer in="alphaNoise" result="coloredNoise1">
<feFuncA type="discrete" tableValues="0 0 0 0 0 0 0 0 0 1 1 1 1 1 1 1 1 1 1 1 1 1 1 1 1 1 1 1 1 1 1 1 1 1 1 1 1 1 1 1 0 0 0 0 0 0 0 0 0 0 0 0 0 0 0 0 0 0 0 0 0 0 0 0 0 0 0 0 0 0 0 0 0 0 0 0 0 0 0 0 0 0 0 0 0 0 0 0 0 0 0 0 0 0 0 0 0 0 0 0 "/>
</feComponentTransfer>
<feComposite operator="in" in2="shape" in="coloredNoise1" result="noise1Clipped" />
<feFlood flood-color="rgba(0, 0, 0, 0.2)" result="color1Flood" />
<feComposite operator="in" in2="noise1Clipped" in="color1Flood" result="color1" />
<feMerge result="effect1_noise_290_224">
<feMergeNode in="shape" />
<feMergeNode in="color1" />
</feMerge>
</filter>
<filter id="filter2_n_290_224" x="199.347" y="2882.99" width="849.271" height="855.891" filterUnits="userSpaceOnUse" color-interpolation-filters="sRGB">
<feFlood flood-opacity="0" result="BackgroundImageFix"/>
<feBlend mode="normal" in="SourceGraphic" in2="BackgroundImageFix" result="shape"/>
<feTurbulence type="fractalNoise" baseFrequency="0.98648524284362793 0.98648524284362793" stitchTiles="stitch" numOctaves="3" result="noise" seed="5884" />
<feColorMatrix in="noise" type="luminanceToAlpha" result="alphaNoise" />
<feComponentTransfer in="alphaNoise" result="coloredNoise1">
<feFuncA type="discrete" tableValues="0 0 0 0 0 0 0 0 0 1 1 1 1 1 1 1 1 1 1 1 1 1 1 1 1 1 1 1 1 1 1 1 1 1 1 1 1 1 1 1 0 0 0 0 0 0 0 0 0 0 0 0 0 0 0 0 0 0 0 0 0 0 0 0 0 0 0 0 0 0 0 0 0 0 0 0 0 0 0 0 0 0 0 0 0 0 0 0 0 0 0 0 0 0 0 0 0 0 0 0 "/>
</feComponentTransfer>
<feComposite operator="in" in2="shape" in="coloredNoise1" result="noise1Clipped" />
<feFlood flood-color="rgba(0, 0, 0, 0.2)" result="color1Flood" />
<feComposite operator="in" in2="noise1Clipped" in="color1Flood" result="color1" />
<feMerge result="effect1_noise_290_224">
<feMergeNode in="shape" />
<feMergeNode in="color1" />
</feMerge>
</filter>
<filter id="filter3_n_290_224" x="1040.22" y="2867" width="5969.72" height="884.684" filterUnits="userSpaceOnUse" color-interpolation-filters="sRGB">
<feFlood flood-opacity="0" result="BackgroundImageFix"/>
<feBlend mode="normal" in="SourceGraphic" in2="BackgroundImageFix" result="shape"/>
<feTurbulence type="fractalNoise" baseFrequency="0.21702674031257629 0.21702674031257629" stitchTiles="stitch" numOctaves="3" result="noise" seed="665" />
<feColorMatrix in="noise" type="luminanceToAlpha" result="alphaNoise" />
<feComponentTransfer in="alphaNoise" result="coloredNoise1">
<feFuncA type="discrete" tableValues="0 0 0 0 0 0 0 0 0 1 1 1 1 1 1 1 1 1 1 1 1 1 1 1 1 1 1 1 1 1 1 1 1 1 1 1 1 1 1 1 0 0 0 0 0 0 0 0 0 0 0 0 0 0 0 0 0 0 0 0 0 0 0 0 0 0 0 0 0 0 0 0 0 0 0 0 0 0 0 0 0 0 0 0 0 0 0 0 0 0 0 0 0 0 0 0 0 0 0 0 "/>
</feComponentTransfer>
<feComposite operator="in" in2="shape" in="coloredNoise1" result="noise1Clipped" />
<feFlood flood-color="rgba(0, 0, 0, 0.2)" result="color1Flood" />
<feComposite operator="in" in2="noise1Clipped" in="color1Flood" result="color1" />
<feMerge result="effect1_noise_290_224">
<feMergeNode in="shape" />
<feMergeNode in="color1" />
</feMerge>
</filter>
<filter id="filter4_n_290_224" x="22.8525" y="3156.4" width="233.147" height="298.859" filterUnits="userSpaceOnUse" color-interpolation-filters="sRGB">
<feFlood flood-opacity="0" result="BackgroundImageFix"/>
<feBlend mode="normal" in="SourceGraphic" in2="BackgroundImageFix" result="shape"/>
<feTurbulence type="fractalNoise" baseFrequency="1 1" stitchTiles="stitch" numOctaves="3" result="noise" seed="2947" />
<feColorMatrix in="noise" type="luminanceToAlpha" result="alphaNoise" />
<feComponentTransfer in="alphaNoise" result="coloredNoise1">
<feFuncA type="discrete" tableValues="0 0 0 0 0 0 0 0 0 1 1 1 1 1 1 1 1 1 1 1 1 1 1 1 1 1 1 1 1 1 1 1 1 1 1 1 1 1 1 1 0 0 0 0 0 0 0 0 0 0 0 0 0 0 0 0 0 0 0 0 0 0 0 0 0 0 0 0 0 0 0 0 0 0 0 0 0 0 0 0 0 0 0 0 0 0 0 0 0 0 0 0 0 0 0 0 0 0 0 0 "/>
</feComponentTransfer>
<feComposite operator="in" in2="shape" in="coloredNoise1" result="noise1Clipped" />
<feFlood flood-color="rgba(0, 0, 0, 0.2)" result="color1Flood" />
<feComposite operator="in" in2="noise1Clipped" in="color1Flood" result="color1" />
<feMerge result="effect1_noise_290_224">
<feMergeNode in="shape" />
<feMergeNode in="color1" />
</feMerge>
</filter>
<filter id="filter5_n_290_224" x="1048.15" y="3943" width="5961.97" height="2672.48" filterUnits="userSpaceOnUse" color-interpolation-filters="sRGB">
<feFlood flood-opacity="0" result="BackgroundImageFix"/>
<feBlend mode="normal" in="SourceGraphic" in2="BackgroundImageFix" result="shape"/>
<feTurbulence type="fractalNoise" baseFrequency="0.21702674031257629 0.21702674031257629" stitchTiles="stitch" numOctaves="3" result="noise" seed="2087" />
<feColorMatrix in="noise" type="luminanceToAlpha" result="alphaNoise" />
<feComponentTransfer in="alphaNoise" result="coloredNoise1">
<feFuncA type="discrete" tableValues="0 0 0 0 0 0 0 0 0 1 1 1 1 1 1 1 1 1 1 1 1 1 1 1 1 1 1 1 1 1 1 1 1 1 1 1 1 1 1 1 0 0 0 0 0 0 0 0 0 0 0 0 0 0 0 0 0 0 0 0 0 0 0 0 0 0 0 0 0 0 0 0 0 0 0 0 0 0 0 0 0 0 0 0 0 0 0 0 0 0 0 0 0 0 0 0 0 0 0 0 "/>
</feComponentTransfer>
<feComposite operator="in" in2="shape" in="coloredNoise1" result="noise1Clipped" />
<feFlood flood-color="rgba(0, 0, 0, 0.2)" result="color1Flood" />
<feComposite operator="in" in2="noise1Clipped" in="color1Flood" result="color1" />
<feMerge result="effect1_noise_290_224">
<feMergeNode in="shape" />
<feMergeNode in="color1" />
</feMerge>
</filter>
<filter id="filter6_n_290_224" x="1039.15" y="0" width="5961.97" height="2672.48" filterUnits="userSpaceOnUse" color-interpolation-filters="sRGB">
<feFlood flood-opacity="0" result="BackgroundImageFix"/>
<feBlend mode="normal" in="SourceGraphic" in2="BackgroundImageFix" result="shape"/>
<feTurbulence type="fractalNoise" baseFrequency="0.21702674031257629 0.21702674031257629" stitchTiles="stitch" numOctaves="3" result="noise" seed="4668" />
<feColorMatrix in="noise" type="luminanceToAlpha" result="alphaNoise" />
<feComponentTransfer in="alphaNoise" result="coloredNoise1">
<feFuncA type="discrete" tableValues="0 0 0 0 0 0 0 0 0 1 1 1 1 1 1 1 1 1 1 1 1 1 1 1 1 1 1 1 1 1 1 1 1 1 1 1 1 1 1 1 0 0 0 0 0 0 0 0 0 0 0 0 0 0 0 0 0 0 0 0 0 0 0 0 0 0 0 0 0 0 0 0 0 0 0 0 0 0 0 0 0 0 0 0 0 0 0 0 0 0 0 0 0 0 0 0 0 0 0 0 "/>
</feComponentTransfer>
<feComposite operator="in" in2="shape" in="coloredNoise1" result="noise1Clipped" />
<feFlood flood-color="rgba(0, 0, 0, 0.2)" result="color1Flood" />
<feComposite operator="in" in2="noise1Clipped" in="color1Flood" result="color1" />
<feMerge result="effect1_noise_290_224">
<feMergeNode in="shape" />
<feMergeNode in="color1" />
</feMerge>
</filter>
</defs>
</svg>
